<svg xmlns="http://www.w3.org/2000/svg" viewBox="0 0 1200 720" role="img" aria-label="">
  <defs>
    <linearGradient id="bg" x1="0" y1="1" x2="1" y2="0">
      <stop offset="0" stop-color="#1a1718"/>
      <stop offset=".48" stop-color="#302021"/>
      <stop offset="1" stop-color="#173030"/>
    </linearGradient>
    <radialGradient id="warm" cx=".42" cy=".28" r=".62">
      <stop offset="0" stop-color="#ff8f4c" stop-opacity=".55"/>
      <stop offset=".5" stop-color="#e95d21" stop-opacity=".22"/>
      <stop offset="1" stop-color="#000" stop-opacity="0"/>
    </radialGradient>
    <filter id="blur"><feGaussianBlur stdDeviation="20"/></filter>
  </defs>
  <rect width="1200" height="720" fill="url(#bg)"/>
  <circle cx="520" cy="190" r="330" fill="url(#warm)" filter="url(#blur)"/>
  <g fill="none" stroke-linecap="round" stroke-linejoin="round">
    <circle cx="390" cy="276" r="118" stroke="#ff8f4c" stroke-width="10" opacity=".78"/>
    <circle cx="676" cy="276" r="118" stroke="#20b2aa" stroke-width="10" opacity=".78"/>
    <path d="M480 276 H586" stroke="#fffcf8" stroke-width="6" opacity=".7"/>
    <path d="M455 448 C503 372 567 372 616 448 C667 364 776 370 798 462 C824 575 671 618 616 650 C562 618 408 575 434 462 C443 421 463 392 492 376" stroke="#e95d21" stroke-width="12" opacity=".72"/>
  </g>
  <g opacity=".46" fill="#fffcf8">
    <circle cx="254" cy="188" r="6"/><circle cx="340" cy="116" r="4"/><circle cx="762" cy="144" r="5"/>
    <circle cx="874" cy="246" r="7"/><circle cx="932" cy="438" r="4"/><circle cx="260" cy="548" r="5"/>
  </g>
  <g opacity=".28" stroke="#fffcf8" stroke-width="1.5">
    <path d="M254 188 L390 276 L340 116"/>
    <path d="M762 144 L676 276 L874 246 L932 438"/>
    <path d="M260 548 L455 448"/>
  </g>
</svg>
