<svg xmlns="http://www.w3.org/2000/svg" viewBox="0 0 1200 720" role="img" aria-label="">
  <defs>
    <linearGradient id="bg" x1="0" y1="0" x2="1" y2="1">
      <stop offset="0" stop-color="#121715"/>
      <stop offset=".48" stop-color="#26312e"/>
      <stop offset="1" stop-color="#1a1a18"/>
    </linearGradient>
    <linearGradient id="helix" x1="0" y1="0" x2="1" y2="0">
      <stop offset="0" stop-color="#20b2aa"/>
      <stop offset=".5" stop-color="#ff8f4c"/>
      <stop offset="1" stop-color="#e95d21"/>
    </linearGradient>
    <radialGradient id="glow" cx=".28" cy=".22" r=".62">
      <stop offset="0" stop-color="#20b2aa" stop-opacity=".5"/>
      <stop offset=".52" stop-color="#e95d21" stop-opacity=".18"/>
      <stop offset="1" stop-color="#000" stop-opacity="0"/>
    </radialGradient>
    <filter id="blur"><feGaussianBlur stdDeviation="22"/></filter>
  </defs>
  <rect width="1200" height="720" fill="url(#bg)"/>
  <circle cx="300" cy="165" r="260" fill="url(#glow)" filter="url(#blur)"/>
  <g opacity=".28" stroke="#fffcf8" stroke-width="1">
    <path d="M60 560 C210 470 360 625 520 532 S840 455 1048 540"/>
    <path d="M112 622 C305 492 438 670 640 565 S925 505 1140 605"/>
  </g>
  <g fill="none" stroke-linecap="round">
    <path d="M156 470 C288 190 446 555 574 280 S806 210 930 468" stroke="url(#helix)" stroke-width="12"/>
    <path d="M172 240 C300 518 456 155 592 428 S808 496 950 238" stroke="#20b2aa" stroke-width="8" opacity=".76"/>
    <g stroke="#fffcf8" stroke-width="3" opacity=".5">
      <path d="M224 345 L294 364"/><path d="M276 268 L360 313"/><path d="M372 293 L438 350"/>
      <path d="M474 396 L548 338"/><path d="M594 364 L670 302"/><path d="M708 309 L790 348"/>
      <path d="M812 401 L884 348"/>
    </g>
  </g>
  <g opacity=".38">
    <circle cx="902" cy="160" r="72" fill="#e95d21"/>
    <circle cx="994" cy="210" r="118" fill="#008c8c"/>
    <circle cx="930" cy="240" r="74" fill="#ff8f4c"/>
  </g>
</svg>
