<svg xmlns="http://www.w3.org/2000/svg" viewBox="0 0 1200 720" role="img" aria-label="">
  <defs>
    <linearGradient id="bg" x1="0" y1="0" x2="1" y2="1">
      <stop offset="0" stop-color="#151619"/>
      <stop offset=".42" stop-color="#20272b"/>
      <stop offset="1" stop-color="#2f2118"/>
    </linearGradient>
    <radialGradient id="orb" cx=".38" cy=".24" r=".6">
      <stop offset="0" stop-color="#fffcf8"/>
      <stop offset=".28" stop-color="#20b2aa"/>
      <stop offset=".66" stop-color="#e95d21"/>
      <stop offset="1" stop-color="#101010"/>
    </radialGradient>
    <linearGradient id="ring" x1="0" y1="0" x2="1" y2="1">
      <stop offset="0" stop-color="#ff8f4c"/>
      <stop offset=".5" stop-color="#20b2aa"/>
      <stop offset="1" stop-color="#fffcf8"/>
    </linearGradient>
    <filter id="blur"><feGaussianBlur stdDeviation="22"/></filter>
  </defs>
  <rect width="1200" height="720" fill="url(#bg)"/>
  <g filter="url(#blur)" opacity=".5">
    <circle cx="590" cy="285" r="260" fill="#20b2aa"/>
    <circle cx="780" cy="430" r="240" fill="#e95d21"/>
  </g>
  <circle cx="590" cy="285" r="172" fill="url(#orb)" opacity=".88"/>
  <circle cx="590" cy="285" r="214" fill="none" stroke="url(#ring)" stroke-width="5" opacity=".54"/>
  <circle cx="590" cy="285" r="268" fill="none" stroke="#fffcf8" stroke-width="1.4" stroke-opacity=".18"/>
  <g fill="none" stroke="#fffcf8" stroke-linecap="round" opacity=".42">
    <path d="M270 450 C402 366 484 504 612 410 S832 324 986 418" stroke-width="3"/>
    <path d="M312 518 C448 428 548 566 690 474 S878 414 1040 500" stroke-width="2"/>
  </g>
  <g opacity=".72" stroke="url(#ring)" stroke-width="8" stroke-linecap="round">
    <path d="M816 170 L880 106"/><path d="M850 224 L948 206"/><path d="M770 126 L780 58"/>
  </g>
  <g fill="#fffcf8" opacity=".55">
    <circle cx="260" cy="168" r="4"/><circle cx="366" cy="116" r="5"/><circle cx="902" cy="350" r="4"/><circle cx="980" cy="560" r="5"/><circle cx="404" cy="570" r="4"/>
  </g>
</svg>
