<svg xmlns="http://www.w3.org/2000/svg" viewBox="0 0 1200 720" role="img" aria-label="">
  <defs>
    <linearGradient id="bg" x1="0" y1="1" x2="1" y2="0">
      <stop offset="0" stop-color="#111815"/>
      <stop offset=".46" stop-color="#15302f"/>
      <stop offset="1" stop-color="#2f211a"/>
    </linearGradient>
    <radialGradient id="earth" cx=".4" cy=".35" r=".55">
      <stop offset="0" stop-color="#20b2aa"/>
      <stop offset=".54" stop-color="#008c8c"/>
      <stop offset="1" stop-color="#003c3c"/>
    </radialGradient>
    <filter id="blur"><feGaussianBlur stdDeviation="18"/></filter>
  </defs>
  <rect width="1200" height="720" fill="url(#bg)"/>
  <circle cx="638" cy="292" r="220" fill="url(#earth)" opacity=".84"/>
  <circle cx="638" cy="292" r="260" fill="none" stroke="#fffcf8" stroke-opacity=".14" stroke-width="2"/>
  <g fill="none" stroke="#fffcf8" stroke-opacity=".2" stroke-width="2">
    <ellipse cx="638" cy="292" rx="220" ry="66"/>
    <ellipse cx="638" cy="292" rx="112" ry="220"/>
    <path d="M418 292 H858"/>
    <path d="M638 72 V512"/>
  </g>
  <path d="M508 235 C562 204 612 222 646 190 C702 138 748 178 780 220 C748 242 712 244 676 238 C632 232 598 276 550 272 C520 270 502 254 508 235Z" fill="#ff8f4c" opacity=".66"/>
  <path d="M562 370 C608 324 672 360 718 324 C752 298 810 324 820 368 C774 380 738 416 688 410 C628 402 604 438 562 416 C544 408 542 390 562 370Z" fill="#e95d21" opacity=".5"/>
  <g opacity=".72">
    <circle cx="390" cy="186" r="8" fill="#ff8f4c"/><circle cx="910" cy="250" r="8" fill="#ff8f4c"/><circle cx="756" cy="548" r="8" fill="#20b2aa"/>
    <path d="M390 186 C520 90 780 98 910 250 C960 340 892 478 756 548" fill="none" stroke="#ff8f4c" stroke-width="4" stroke-linecap="round" stroke-dasharray="12 18"/>
  </g>
  <g filter="url(#blur)" opacity=".42">
    <ellipse cx="638" cy="606" rx="420" ry="54" fill="#e95d21"/>
  </g>
</svg>
