<svg xmlns="http://www.w3.org/2000/svg" viewBox="0 0 1200 720" role="img" aria-label="">
  <defs>
    <linearGradient id="bg" x1="0" y1="0" x2="1" y2="1">
      <stop offset="0" stop-color="#171816"/>
      <stop offset=".5" stop-color="#26302d"/>
      <stop offset="1" stop-color="#2b211c"/>
    </linearGradient>
    <linearGradient id="line" x1="0" y1="0" x2="1" y2="0">
      <stop offset="0" stop-color="#20b2aa"/>
      <stop offset=".5" stop-color="#ff8f4c"/>
      <stop offset="1" stop-color="#e95d21"/>
    </linearGradient>
    <filter id="blur"><feGaussianBlur stdDeviation="24"/></filter>
  </defs>
  <rect width="1200" height="720" fill="url(#bg)"/>
  <g filter="url(#blur)" opacity=".5">
    <ellipse cx="840" cy="210" rx="260" ry="170" fill="#20b2aa"/>
    <ellipse cx="382" cy="460" rx="300" ry="200" fill="#e95d21"/>
  </g>
  <g transform="translate(132 116)" opacity=".9">
    <rect x="0" y="0" width="280" height="380" rx="26" fill="#fffcf8" opacity=".08" stroke="#fffcf8" stroke-opacity=".16"/>
    <rect x="330" y="62" width="280" height="380" rx="26" fill="#fffcf8" opacity=".08" stroke="#fffcf8" stroke-opacity=".16"/>
    <rect x="660" y="14" width="280" height="380" rx="26" fill="#fffcf8" opacity=".08" stroke="#fffcf8" stroke-opacity=".16"/>
    <g stroke="url(#line)" stroke-width="8" stroke-linecap="round">
      <path d="M58 90 H220"/><path d="M58 142 H170"/><path d="M58 194 H238"/>
      <path d="M388 154 H548"/><path d="M388 206 H500"/><path d="M388 258 H570"/>
      <path d="M718 106 H878"/><path d="M718 158 H824"/><path d="M718 210 H900"/>
    </g>
    <path d="M248 208 C314 180 334 192 372 226" fill="none" stroke="#fffcf8" stroke-width="4" opacity=".45"/>
    <path d="M578 250 C642 220 658 210 716 230" fill="none" stroke="#fffcf8" stroke-width="4" opacity=".45"/>
  </g>
  <path d="M268 588 C420 518 520 625 688 538 S930 492 1058 560" fill="none" stroke="url(#line)" stroke-width="12" opacity=".52" stroke-linecap="round"/>
</svg>
